<svg version="1.1" id="Layer_1" xmlns="http://www.w3.org/2000/svg" xmlns:xlink="http://www.w3.org/1999/xlink" x="0px" y="0px"
	 width="100%" viewBox="0 0 1024 1024" enable-background="new 0 0 1024 1024" xml:space="preserve">
<path fill="#000000" opacity="1.000000" stroke="none" 
	d="
M170.630096,667.514282 
	C116.130363,645.615967 83.480461,605.600952 72.877289,548.720154 
	C64.271576,502.554779 76.997139,460.931305 106.410072,424.661957 
	C120.669174,407.078949 139.415359,394.839050 159.255554,384.225830 
	C174.980087,375.814270 187.601776,364.380829 196.530151,348.462280 
	C204.721115,333.858490 216.606964,322.332672 232.145905,315.224823 
	C240.753754,311.287445 249.588074,310.338409 258.835236,313.338562 
	C269.622925,316.838440 280.915466,317.985718 292.086029,319.602417 
	C295.409882,320.083527 298.642578,320.856445 301.713776,322.080505 
	C311.849640,326.120300 314.979767,335.566498 309.305603,345.369049 
	C305.300415,352.288330 299.117584,357.154144 292.712219,361.727448 
	C282.257355,369.192017 271.288147,375.849518 260.057800,382.044464 
	C253.176712,385.840240 248.141525,391.131592 245.168716,398.281891 
	C238.780930,413.646088 232.524109,429.065491 226.322998,444.506165 
	C223.651337,451.158508 222.166916,458.170593 220.640808,465.155518 
	C219.914856,468.478180 220.515030,471.306976 223.125412,473.782990 
	C225.834076,476.352264 228.232391,474.999115 230.868668,473.842865 
	C234.837845,472.102020 238.978271,470.865631 243.240952,470.020233 
	C245.446106,469.582886 247.519165,469.667419 249.560913,470.675415 
	C251.159546,471.464600 252.438721,472.423950 252.173523,474.449036 
	C251.943497,476.205597 250.736633,476.969879 249.134766,477.277893 
	C246.185181,477.845093 243.513412,478.988251 241.019348,481.085449 
	C246.517059,482.635742 251.650864,484.425720 256.261169,487.500519 
	C258.098145,488.725616 259.779510,490.087524 260.938812,491.926758 
	C262.101471,493.771210 263.146118,495.820251 261.322968,497.885498 
	C259.640503,499.791321 257.619293,499.138580 255.828644,498.190796 
	C250.868179,495.565308 245.484985,495.225983 239.281464,494.304565 
	C241.527084,499.095978 245.312149,501.536804 247.422211,505.191650 
	C248.169632,506.486237 249.069534,507.695709 249.937469,508.917297 
	C251.918304,511.705475 251.716614,514.360229 248.962387,516.339783 
	C246.146317,518.363831 243.762741,517.298767 241.620148,514.773132 
	C238.638550,511.258575 235.367310,508.013214 230.273148,505.167267 
	C231.014114,508.403625 231.611938,510.573944 231.985931,512.782166 
	C232.308395,514.686157 233.140076,517.031494 230.739258,518.079468 
	C228.160004,519.205383 226.679596,517.101257 225.567307,515.282166 
	C224.183960,513.019714 223.009964,510.595001 222.031418,508.126984 
	C220.487686,504.233734 217.980240,501.340240 214.314682,499.309052 
	C211.697418,497.858734 209.253418,496.099457 206.686813,494.553253 
	C196.026688,488.131195 192.328659,478.013397 191.700043,466.297180 
	C191.549362,463.488647 191.677673,460.665131 191.677673,456.522034 
	C189.735214,464.022217 188.081619,464.810272 190.745422,481.676270 
	C188.029037,483.714172 184.739151,484.805939 181.071091,486.438385 
	C174.910202,474.479645 165.847748,466.058441 151.877838,466.623474 
	C140.512283,467.083130 132.022705,473.933716 125.000275,482.499359 
	C131.517227,478.949066 137.605957,474.720276 145.151840,473.219269 
	C159.753830,470.314697 174.585281,479.603027 176.959610,494.209015 
	C178.213425,501.922058 175.085068,509.250305 172.525345,516.470154 
	C171.546387,519.231384 169.780609,521.764954 169.857834,525.426575 
	C174.357269,524.255676 178.595001,523.059937 182.880478,522.071045 
	C185.654007,521.430969 188.493469,521.114563 191.054245,522.940308 
	C192.620804,524.057190 193.925262,525.467041 193.618576,527.473511 
	C193.331711,529.350220 191.685654,529.984680 189.966843,530.388855 
	C188.686981,530.689819 187.454086,531.190430 185.837936,531.721069 
	C187.030945,534.036621 189.260330,534.531128 190.988739,535.567017 
	C193.420532,537.024475 196.031204,538.236328 197.724716,540.620667 
	C199.049652,542.486023 200.995117,544.562805 199.457840,546.878784 
	C197.745224,549.458862 195.063980,548.438416 192.678070,547.540771 
	C190.522202,546.729736 188.620865,545.229370 185.793503,545.091553 
	C185.857773,547.205444 187.393250,548.227112 188.603790,549.383789 
	C191.441238,552.094910 193.245300,555.432739 194.666321,559.028381 
	C195.496994,561.130249 195.210831,562.982605 193.428024,564.424011 
	C191.342499,566.110168 189.634079,564.828491 188.146164,563.443359 
	C184.277893,559.842224 180.886093,555.641357 175.121826,553.486755 
	C176.292679,557.500183 177.574646,561.003662 178.271088,564.619812 
	C178.681274,566.749573 179.366776,569.701294 176.519989,570.758911 
	C173.531799,571.869019 172.065994,569.342285 170.741028,567.205017 
	C169.601364,565.366699 168.587692,563.449768 167.530014,561.561096 
	C164.776779,556.644287 160.842545,553.339050 155.131699,552.449280 
	C154.637787,552.372375 154.133163,552.341248 153.649872,552.222351 
	C139.143036,548.652832 138.718399,545.706787 140.075043,530.695740 
	C140.309769,528.098450 140.867477,525.530396 141.310074,522.733521 
	C138.381653,522.346558 136.981277,524.206970 135.525192,525.599792 
	C127.023827,533.731567 123.149162,544.044983 122.376099,555.500122 
	C120.903961,577.313843 130.333466,594.967468 144.699387,610.261475 
	C166.009750,632.948486 192.590042,646.141663 223.199142,650.355652 
	C261.142670,655.579529 295.078156,645.699036 324.254211,620.516418 
	C328.159943,617.145325 331.882568,613.562561 335.702667,610.091736 
	C337.060303,608.858276 338.453003,607.322388 340.459320,608.768066 
	C342.569061,610.288208 342.653656,612.303833 341.447327,614.507141 
	C339.029419,618.923279 335.938385,622.859680 332.570679,626.550049 
	C308.642273,652.770813 279.531250,669.934021 244.201843,675.049255 
	C219.348984,678.647644 194.748016,676.560120 170.630096,667.514282 
M263.243164,335.442780 
	C262.263641,334.549866 261.380005,333.511902 260.287659,332.789612 
	C255.923706,329.903961 250.395325,330.858887 247.380539,334.920929 
	C244.095795,339.346710 244.833862,344.741852 249.206024,348.173920 
	C252.937469,351.103027 256.695709,351.367584 260.611694,348.436981 
	C264.771484,345.323853 265.682159,341.834808 263.243164,335.442780 
z"/>
<path fill="#000000" opacity="1.000000" stroke="none" 
	d="
M647.104370,575.717834 
	C641.137512,558.540649 635.341248,541.720093 629.489563,524.918762 
	C627.653320,519.646729 622.626526,517.458923 617.299683,519.397217 
	C614.625366,520.370300 615.382629,522.627747 615.377563,524.479736 
	C615.325928,543.302551 615.345764,562.125610 615.341553,580.948547 
	C615.339417,590.554810 614.496216,591.385681 604.694519,591.386108 
	C599.031067,591.386353 593.367371,591.319702 587.704163,591.351929 
	C583.124146,591.377991 581.094788,588.841797 580.721436,584.594482 
	C580.619690,583.436523 580.673950,582.263977 580.673889,581.098083 
	C580.672241,524.296082 580.670593,467.494049 580.674500,410.692047 
	C580.675110,401.951660 581.985046,400.660431 590.829407,400.657776 
	C605.154846,400.653503 619.487854,400.374146 633.803589,400.748779 
	C647.598450,401.109772 660.523010,404.298523 670.325073,415.116272 
	C677.166931,422.667114 680.582214,431.831940 682.091187,441.647644 
	C684.383484,456.558868 684.323486,471.492035 680.203918,486.143372 
	C677.234070,496.705841 671.963867,505.820038 662.003845,511.355469 
	C658.228577,513.453674 659.335449,516.126648 660.476685,519.006958 
	C668.441772,539.109802 676.403748,559.213867 684.362061,579.319458 
	C684.790405,580.401550 685.211121,581.489075 685.574341,582.594238 
	C687.831299,589.461121 686.054443,592.142822 679.007507,592.123413 
	C672.347717,592.105103 665.689026,591.743958 659.028931,591.709900 
	C654.337158,591.685913 651.624878,589.415100 650.300049,585.052185 
	C649.383057,582.032166 648.275818,579.069885 647.104370,575.717834 
M615.346375,453.500031 
	C615.346863,463.664795 615.340454,473.829559 615.353455,483.994324 
	C615.356201,486.152985 615.025818,488.648682 618.263184,488.743683 
	C623.750427,488.904755 629.291687,489.327362 634.693542,488.172150 
	C641.364929,486.745361 645.453552,482.561432 646.694763,475.724030 
	C648.458496,466.008331 648.911560,456.243713 647.512390,446.464325 
	C646.282410,437.866791 640.934326,432.237549 633.175354,431.448395 
	C628.713379,430.994568 624.192078,431.135712 619.698486,430.979095 
	C616.538879,430.868958 615.228516,432.294769 615.312561,435.504456 
	C615.460754,441.166107 615.349243,446.834534 615.346375,453.500031 
z"/>
<path fill="#000000" opacity="1.000000" stroke="none" 
	d="
M899.236694,467.121796 
	C896.038879,474.124146 893.225098,480.904175 889.860840,487.399109 
	C887.892395,491.199341 888.036011,494.330475 889.833069,498.157501 
	C902.854675,525.888428 915.674744,553.714050 928.544922,581.515991 
	C931.917725,588.802002 930.340515,591.339966 922.408997,591.371033 
	C914.910767,591.400391 907.405762,591.167053 899.916016,591.417236 
	C894.604858,591.594666 891.642517,589.239441 889.723389,584.464844 
	C883.269653,568.408203 876.621216,552.429871 870.029236,536.428955 
	C869.417419,534.943848 869.237183,533.182007 867.055054,531.878052 
	C863.437744,540.376648 859.852905,548.725281 856.328369,557.099243 
	C852.455078,566.301697 848.526428,575.483459 844.842346,584.761780 
	C842.995422,589.413452 839.934326,591.524536 834.924194,591.408508 
	C827.596497,591.238770 820.261475,591.411255 812.930054,591.363464 
	C806.011841,591.318359 803.995911,588.217957 806.945618,581.769592 
	C816.642273,560.571655 826.461609,539.429871 836.219788,518.259949 
	C839.565552,511.001404 842.779114,503.680054 846.240601,496.477478 
	C847.503906,493.848785 847.541138,491.611389 846.298340,488.937347 
	C834.512390,463.577972 822.837158,438.167175 811.132751,412.769958 
	C810.435730,411.257538 809.607300,409.783478 809.106628,408.206909 
	C807.603638,403.474091 809.517334,400.755524 814.521118,400.691376 
	C822.518127,400.588776 830.528320,400.913177 838.511841,400.568726 
	C844.078979,400.328522 847.098145,402.706512 849.049988,407.700012 
	C854.077515,420.562500 859.325317,433.339813 864.585754,446.109741 
	C865.579895,448.523102 866.318665,451.126282 868.584717,453.627930 
	C872.704407,443.829987 876.719055,434.377686 880.652771,424.891785 
	C883.138733,418.897186 885.616089,412.894409 887.885437,406.816193 
	C889.492188,402.512695 892.219666,400.476471 896.927063,400.604095 
	C904.419922,400.807251 911.922424,400.642639 919.420837,400.658905 
	C927.119690,400.675598 928.829834,403.229767 925.641479,410.136749 
	C916.919922,429.031158 908.143860,447.900452 899.236694,467.121796 
z"/>
<path fill="#000000" opacity="1.000000" stroke="none" 
	d="
M770.947815,511.366669 
	C761.626038,511.364746 752.795288,511.360077 743.964539,511.362854 
	C741.691101,511.363556 739.410950,511.471558 739.405334,514.587769 
	C739.379639,528.882935 739.394043,543.178040 739.394043,557.681030 
	C746.373291,559.122681 753.023132,558.186035 759.595581,558.478699 
	C767.743408,558.841492 775.920105,558.547424 784.084290,558.552979 
	C790.160828,558.557129 791.796509,559.992981 792.022034,566.138672 
	C792.217468,571.463013 792.258057,576.808533 792.023010,582.129517 
	C791.692810,589.601074 788.849731,592.263916 781.404724,592.279480 
	C759.244568,592.325867 737.084167,592.334778 714.924072,592.274780 
	C707.295410,592.254150 704.668457,589.573181 704.666626,582.079834 
	C704.652405,524.096558 704.652588,466.113312 704.663940,408.130035 
	C704.665161,402.074127 706.463257,399.877716 712.594971,399.835083 
	C735.753540,399.674072 758.914856,399.645782 782.072998,399.828888 
	C788.523987,399.879883 791.054382,402.793365 791.236633,409.227295 
	C791.392273,414.721375 791.349243,420.224365 791.258789,425.721222 
	C791.152771,432.168427 789.328003,434.054901 782.823608,434.112000 
	C770.328125,434.221710 757.828613,434.311676 745.336121,434.098114 
	C740.949524,434.023132 739.090027,435.072113 739.239868,439.920471 
	C739.584656,451.073273 739.520935,462.247894 739.263855,473.405426 
	C739.165039,477.695038 740.776855,478.806244 744.786133,478.727600 
	C755.278931,478.521667 765.778870,478.629547 776.275574,478.687958 
	C782.257385,478.721222 783.299744,479.774445 783.359558,485.643677 
	C783.418823,491.463745 783.484375,497.286499 783.377136,503.104919 
	C783.238037,510.645782 782.476379,511.318390 774.937866,511.366486 
	C773.771606,511.373901 772.605164,511.367004 770.947815,511.366669 
z"/>
<path fill="#000000" opacity="1.000000" stroke="none" 
	d="
M338.833801,432.710449 
	C336.580383,430.969299 336.126862,428.749573 336.064941,426.632355 
	C335.880188,420.310089 335.724762,413.969238 336.011597,407.656250 
	C336.263214,402.119049 338.029541,400.678009 343.521057,400.672028 
	C369.836761,400.643433 396.152557,400.642273 422.468262,400.669525 
	C428.361389,400.675629 430.240021,402.528748 430.318054,408.385559 
	C430.400177,414.547058 430.217346,420.714111 430.397095,426.871552 
	C430.507233,430.644836 429.682770,434.066467 428.112366,437.463593 
	C410.447906,475.675751 392.833740,513.911194 375.215942,552.144897 
	C374.459747,553.786072 373.395416,555.340942 373.520538,557.336792 
	C374.958405,559.384033 377.150787,558.596436 379.009094,558.605286 
	C394.331848,558.677856 409.655090,558.628174 424.978119,558.658203 
	C431.620636,558.671265 432.314087,559.421265 432.336700,566.284302 
	C432.355896,572.113708 432.358887,577.943298 432.329956,583.772644 
	C432.296753,590.459534 430.546936,592.238708 423.662903,592.286377 
	C413.170380,592.359131 402.677063,592.318298 392.184082,592.319214 
	C375.362000,592.320679 358.539886,592.336182 341.717865,592.305725 
	C334.846649,592.293335 332.834869,590.257263 332.689880,583.391602 
	C332.686371,583.225098 332.701477,583.057190 332.684967,582.892151 
	C331.216400,568.226074 334.940277,554.987244 341.378662,541.676392 
	C357.681213,507.972321 372.876953,473.732849 388.495514,439.698395 
	C389.249756,438.054840 389.808533,436.321564 390.828033,433.667694 
	C373.204590,433.427368 356.199951,433.195465 338.833801,432.710449 
z"/>
<path fill="#000000" opacity="1.000000" stroke="none" 
	d="
M536.695679,480.576721 
	C532.721680,490.147644 529.038940,499.428558 525.051636,508.576813 
	C523.220703,512.777710 522.229980,516.936768 522.266663,521.568542 
	C522.427673,541.887390 522.350830,562.208191 522.329956,582.528320 
	C522.322327,589.923340 520.900330,591.352600 513.646729,591.380127 
	C507.484161,591.403503 501.321228,591.407349 495.158844,591.362488 
	C488.836853,591.316467 486.760620,589.390503 486.724060,583.025574 
	C486.632202,567.036560 486.146393,551.022217 486.857849,535.064453 
	C487.466248,521.418823 484.701141,508.999237 479.260162,496.493103 
	C467.252289,468.892883 456.222046,440.867279 444.800110,413.012299 
	C444.358368,411.935059 443.972565,410.833710 443.592041,409.732727 
	C441.301971,403.106354 442.939728,400.686707 449.783752,400.659973 
	C456.945648,400.631989 464.125031,400.959686 471.264374,400.557129 
	C477.177460,400.223724 480.035614,402.941650 481.862396,408.180908 
	C488.594940,427.489838 495.522705,446.730896 502.446014,465.972687 
	C503.036835,467.614716 503.130219,469.592163 505.326324,471.091034 
	C508.504639,462.393127 511.638794,453.881653 514.725647,445.353088 
	C519.366150,432.532074 524.047791,419.725098 528.552307,406.856201 
	C530.018188,402.668396 532.632446,400.618561 537.053101,400.646454 
	C545.047485,400.696960 553.043030,400.603271 561.037109,400.674835 
	C566.693909,400.725464 568.575745,403.298370 566.405945,408.743958 
	C560.371765,423.887726 554.096741,438.935913 547.869446,454.002258 
	C544.247498,462.765137 540.534546,471.490356 536.695679,480.576721 
z"/>
</svg>